<svg width="34.000000" height="34.000000" viewBox="0 0 34 34" fill="none" xmlns="http://www.w3.org/2000/svg" xmlns:xlink="http://www.w3.org/1999/xlink">
	<desc>
			Created with Pixso.
	</desc>
	<defs>
		<clipPath id="clip324_30">
			<rect width="34.000000" height="34.000000" fill="white" fill-opacity="0"/>
		</clipPath>
	</defs>
	<rect width="34.000000" height="34.000000" fill="#000000" fill-opacity="0"/>
	<g clip-path="url(#clip324_30)">
		<path d="M17 2.83C20.8 2.83 23.92 5.81 24.08 9.59L24.04 9.59C24.05 9.7 24.02 9.81 23.98 9.91L24.2 9.91C25.92 9.91 27.73 11.11 28.45 13.99L28.53 14.33L29.62 23.11C30.41 28.7 27.34 31.06 23.17 31.16L22.89 31.16L11.14 31.16C6.9 31.16 3.63 29.61 4.34 23.49L4.39 23.11L5.5 14.33C6.04 11.23 7.86 10 9.62 9.92L9.81 9.91L9.93 9.91C9.91 9.81 9.91 9.7 9.93 9.59C10.08 5.81 13.21 2.83 17 2.83ZM12.88 14.63C12.19 14.63 11.63 15.21 11.63 15.92C11.63 16.63 12.19 17.21 12.88 17.21C13.57 17.21 14.13 16.63 14.13 15.92L14.12 15.76C14.05 15.12 13.52 14.63 12.88 14.63ZM21.08 14.63C20.39 14.63 19.83 15.21 19.83 15.92C19.83 16.63 20.39 17.21 21.08 17.21C21.77 17.21 22.34 16.63 22.34 15.92C22.34 15.21 21.77 14.63 21.08 14.63ZM16.95 4.67C14.22 4.67 12.01 6.88 12.01 9.59C12.03 9.7 12.03 9.81 12.01 9.91L21.94 9.91C21.9 9.81 21.88 9.7 21.88 9.59C21.88 6.88 19.67 4.67 16.95 4.67Z" fill="#FFFFFF" fill-opacity="1.000000" fill-rule="nonzero"/>
	</g>
</svg>
