<svg width="9.000000" height="7.000000" viewBox="0 0 9 7" fill="none" xmlns="http://www.w3.org/2000/svg" xmlns:xlink="http://www.w3.org/1999/xlink">
	<desc>
			Created with Pixso.
	</desc>
	<defs/>
	<path id="Vector" d="M7.34 -0.41C7.49 -0.56 7.71 -0.65 7.92 -0.65C8.14 -0.64 8.35 -0.56 8.51 -0.4C8.66 -0.25 8.76 -0.04 8.76 0.18C8.77 0.39 8.69 0.61 8.54 0.77L4.05 6.38C3.97 6.46 3.88 6.53 3.78 6.58C3.67 6.62 3.56 6.65 3.45 6.65C3.33 6.65 3.22 6.63 3.12 6.59C3.01 6.55 2.92 6.48 2.84 6.4L-0.14 3.43C-0.22 3.35 -0.29 3.26 -0.34 3.15C-0.38 3.05 -0.41 2.94 -0.41 2.82C-0.41 2.71 -0.39 2.6 -0.35 2.49C-0.31 2.39 -0.24 2.29 -0.16 2.21C-0.08 2.13 0.01 2.07 0.12 2.03C0.22 1.98 0.34 1.96 0.45 1.97C0.56 1.97 0.67 1.99 0.78 2.04C0.88 2.09 0.97 2.15 1.05 2.23L3.41 4.59L7.31 -0.39C7.32 -0.4 7.33 -0.41 7.34 -0.41L7.34 -0.41Z" fill="#FFFFFF" fill-opacity="1.000000" fill-rule="nonzero"/>
</svg>
