<svg width="20.000000" height="19.000000" viewBox="0 0 20 19" fill="none" xmlns="http://www.w3.org/2000/svg" xmlns:xlink="http://www.w3.org/1999/xlink">
	<desc>
			Created with Pixso.
	</desc>
	<defs/>
	<path id="Vector" d="M17.92 7.81L10.95 7.81L10.95 0.85C10.95 0.08 10.33 -0.54 9.56 -0.54C8.79 -0.54 8.17 0.08 8.17 0.85L8.17 7.81L1.2 7.81C0.43 7.81 -0.19 8.44 -0.19 9.21C-0.19 9.97 0.43 10.6 1.2 10.6L8.17 10.6L8.17 17.56C8.17 18.33 8.79 18.95 9.56 18.95C10.33 18.95 10.95 18.33 10.95 17.56L10.95 10.6L17.92 10.6C18.68 10.6 19.31 9.97 19.31 9.21C19.31 8.44 18.68 7.81 17.92 7.81Z" fill="#FFFFFF" fill-opacity="1.000000" fill-rule="nonzero"/>
</svg>
