<svg width="16.000000" height="15.000000" viewBox="0 0 16 15" fill="none" xmlns="http://www.w3.org/2000/svg" xmlns:xlink="http://www.w3.org/1999/xlink">
	<desc>
			Created with Pixso.
	</desc>
	<defs/>
	<path id="Vector" d="M12.12 9C11.92 9.19 11.83 9.46 11.88 9.74L12.55 13.48C12.61 13.8 12.48 14.12 12.21 14.31C11.95 14.5 11.6 14.52 11.32 14.37L7.95 12.61C7.83 12.54 7.7 12.51 7.57 12.51L7.36 12.51C7.29 12.52 7.22 12.54 7.15 12.58L3.78 14.34C3.61 14.43 3.42 14.46 3.24 14.43C2.79 14.34 2.49 13.91 2.56 13.46L3.24 9.71C3.28 9.44 3.19 9.16 3 8.97L0.25 6.3C0.02 6.08 -0.06 5.74 0.04 5.44C0.14 5.14 0.4 4.92 0.72 4.87L4.5 4.32C4.79 4.29 5.04 4.12 5.17 3.86L6.84 0.44C6.88 0.36 6.93 0.29 6.99 0.23L7.06 0.18C7.1 0.14 7.14 0.11 7.18 0.08L7.27 0.05L7.4 0L7.72 0C8 0.02 8.26 0.2 8.39 0.45L10.08 3.86C10.2 4.11 10.44 4.28 10.71 4.32L14.5 4.87C14.82 4.92 15.08 5.14 15.19 5.44C15.29 5.75 15.2 6.08 14.97 6.3L12.12 9Z" fill="#F6B76F" fill-opacity="1.000000" fill-rule="nonzero"/>
</svg>
