<svg width="18.000000" height="18.000000" viewBox="0 0 18 18" fill="none" xmlns="http://www.w3.org/2000/svg" xmlns:xlink="http://www.w3.org/1999/xlink">
	<desc>
			Created with Pixso.
	</desc>
	<defs>
		<clipPath id="clip324_144">
			<rect width="18.278625" height="18.278809" transform="translate(-0.293945 -0.997070)" fill="white" fill-opacity="0"/>
		</clipPath>
	</defs>
	<rect width="18.278625" height="18.278809" transform="translate(-0.293945 -0.997070)" fill="#000000" fill-opacity="0"/>
	<g clip-path="url(#clip324_144)">
		<path d="M13.35 9.9C13.16 10.1 13.07 10.37 13.11 10.64L13.79 14.39C13.84 14.71 13.71 15.03 13.44 15.21C13.18 15.4 12.84 15.43 12.55 15.27L9.18 13.51C9.06 13.45 8.93 13.42 8.8 13.41L8.59 13.41C8.52 13.43 8.45 13.45 8.39 13.48L5.01 15.25C4.85 15.33 4.66 15.36 4.47 15.33C4.02 15.25 3.72 14.82 3.8 14.37L4.47 10.62C4.52 10.35 4.43 10.07 4.23 9.87L1.48 7.21C1.25 6.98 1.17 6.65 1.27 6.35C1.38 6.05 1.64 5.83 1.95 5.78L5.74 5.23C6.03 5.2 6.28 5.02 6.41 4.76L8.08 1.34C8.12 1.27 8.17 1.2 8.23 1.14L8.3 1.08C8.33 1.04 8.37 1.01 8.42 0.99L8.5 0.96L8.63 0.9L8.95 0.9C9.24 0.93 9.49 1.1 9.62 1.36L11.31 4.76C11.43 5.01 11.67 5.19 11.94 5.23L15.73 5.78C16.05 5.82 16.32 6.04 16.42 6.35C16.52 6.65 16.44 6.99 16.2 7.21L13.35 9.9Z" fill="#F6B76F" fill-opacity="0.500000" fill-rule="nonzero"/>
	</g>
</svg>
